HIERARCHY
ROOT Hips
{
	OFFSET 0.00 0.00 0.00
	CHANNELS 6 Xposition Yposition Zposition Xrotation Yrotation Zrotation
	JOINT Spine
	{
		OFFSET 0.00000 7.50895 0.00000
		CHANNELS 3 Xrotation Yrotation Zrotation
		JOINT Head
		{
			OFFSET 0.00000 13.86115 0.00000
			CHANNELS 3 Xrotation Yrotation Zrotation
			End Site
			{
				OFFSET 0.00000 4.52755 0.00000
			}
		}
		JOINT LeftShoulder
		{
			OFFSET 0.00000 8.20478 0.00000
			CHANNELS 3 Xrotation Yrotation Zrotation
			JOINT LeftArm
			{
				OFFSET 6.63596 0.00000 0.00000
				CHANNELS 3 Xrotation Yrotation Zrotation
				JOINT LeftForeArm
				{
					OFFSET 10.27422 0.00000 0.00000
					CHANNELS 3 Yrotation Zrotation Xrotation
					JOINT LeftHand
					{
						OFFSET 8.52215 0.00000 0.00000
						CHANNELS 3 Xrotation Yrotation Zrotation
						JOINT LeftHandThumb1
						{
							OFFSET 0.00000 0.00000 0.00000
							CHANNELS 3 Xrotation Zrotation Yrotation
							End Site
							{
								OFFSET 0.00000 0.00000 3.93700
							}
						}
						End Site
						{
							OFFSET 3.93700 0.00000 0.00000
						}
					}
				}
			}
		}
		JOINT RightShoulder
		{
			OFFSET 0.00000 8.20478 0.00000
			CHANNELS 3 Xrotation Yrotation Zrotation
			JOINT RightArm
			{
				OFFSET -6.63596 0.00000 0.00000
				CHANNELS 3 Xrotation Yrotation Zrotation
				JOINT RightForeArm
				{
					OFFSET -10.27422 0.00000 0.00000
					CHANNELS 3 Yrotation Zrotation Xrotation
					JOINT RightHand
					{
						OFFSET -8.52215 0.00000 0.00000
						CHANNELS 3 Xrotation Yrotation Zrotation
						JOINT RightHandThumb1
						{
							OFFSET 0.00000 0.00000 0.00000
							CHANNELS 3 Xrotation Zrotation Yrotation
							End Site
							{
								OFFSET 0.00000 0.00000 3.93700
							}
						}
						End Site
						{
							OFFSET -3.93700 0.00000 0.00000
						}
					}
				}
			}
		}
	}
	JOINT LeftUpLeg
	{
		OFFSET 3.00056 0.00000 0.00000
		CHANNELS 3 Xrotation Yrotation Zrotation
		JOINT LeftLeg
		{
			OFFSET 0.00000 -16.49085 0.00000
			CHANNELS 3 Xrotation Yrotation Zrotation
			JOINT LeftFoot
			{
				OFFSET 0.00000 -14.55658 0.00000
				CHANNELS 3 Xrotation Yrotation Zrotation
				JOINT LeftToeBase
				{
					OFFSET 0.00000 -1.25038 4.66650
					CHANNELS 3 Xrotation Yrotation Zrotation
					End Site
					{
						OFFSET 0.00000 0.00000 2.95275
					}
				}
			}
		}
	}
	JOINT RightUpLeg
	{
		OFFSET -3.00056 0.00000 0.00000
		CHANNELS 3 Xrotation Yrotation Zrotation
		JOINT RightLeg
		{
			OFFSET 0.00000 -16.49085 0.00000
			CHANNELS 3 Xrotation Yrotation Zrotation
			JOINT RightFoot
			{
				OFFSET 0.00000 -14.55658 0.00000
				CHANNELS 3 Xrotation Yrotation Zrotation
				JOINT RightToeBase
				{
					OFFSET 0.00000 -1.25038 4.66650
					CHANNELS 3 Xrotation Yrotation Zrotation
					End Site
					{
						OFFSET 0.00000 0.00000 2.95275
					}
				}
			}
		}
	}
}
MOTION
Frames: 20
Frame Time: 0.008333
 0.5119 32.8799 -2.3522 11.6668 -44.4348 -4.9270 -6.2543 7.1969 5.0674 -2.8403 -17.8338 14.1219 18.5867 15.1239 16.4942 -15.1247 6.3938 -82.1866 -136.5682 -0.0000 8.5484 -2.0013 29.9656 4.0019 33.1476 -0.0000 26.2537 -17.8961 -16.0373 -23.0772 20.5925 -3.4833 80.2920 29.3110 0.0000 24.7087 2.3491 -10.3020 12.9191 32.8623 0.0000 -24.3270 -16.2332 19.4351 2.9318 12.5651 0.0000 -0.0000 -20.7729 30.8852 7.4025 5.0422 0.0000 -0.0000 -82.7634 -4.5753 -30.0825 130.2085 0.0000 -0.0000 31.4813 -4.4329 0.5640 18.5668 0.0000 0.0000
 0.5114 32.8801 -2.3593 11.6096 -44.5253 -4.9674 -6.2041 7.2225 5.0548 -2.7822 -17.7424 14.1266 18.5959 15.0574 16.5365 -15.1485 6.2934 -82.1710 -136.5899 -0.0000 8.6152 -2.0031 30.0015 4.0010 33.1476 -0.0000 26.2537 -17.8512 -16.0305 -23.0738 20.5785 -3.5320 80.2852 29.3245 0.0000 24.8269 2.3558 -10.2506 13.0171 32.8623 0.0000 -24.3270 -16.2141 19.4541 2.9805 12.5802 0.0000 0.0000 -20.8067 30.8546 7.5564 5.0931 -0.0000 0.0000 -82.7648 -4.5950 -30.0997 130.0346 -0.0000 -0.0000 31.2951 -4.6254 0.6015 18.7917 -0.0000 -0.0000
 0.5120 32.8788 -2.3666 11.5093 -44.5920 -5.0464 -6.1139 7.2991 5.0481 -2.7305 -17.7006 14.1709 18.5838 14.9095 16.6255 -15.1552 6.1607 -82.1793 -136.5997 -0.0000 8.7912 -2.0761 29.9769 4.1496 33.1476 -0.0000 26.2537 -17.8085 -16.0715 -23.0738 20.6101 -3.5939 80.2806 29.4139 0.0000 24.8164 2.3799 -10.3970 12.9687 32.8623 0.0000 -24.3270 -16.1747 19.4730 3.0142 12.6064 0.0000 -0.0000 -20.8553 30.9284 7.4955 5.1106 -0.0000 0.0000 -82.7409 -4.6162 -30.1318 129.8924 0.0000 -0.0000 31.1046 -4.8706 0.4463 18.5439 -0.0000 0.0000
 0.5082 32.8791 -2.3804 11.4589 -44.6748 -5.1424 -6.0458 7.3059 5.0947 -2.7360 -17.5975 14.2082 18.5630 14.8549 16.6600 -15.1624 6.0602 -82.1461 -136.6446 -0.0000 8.7691 -2.0057 29.9929 4.0074 33.1476 -0.0000 26.2537 -17.7904 -16.1064 -23.0756 20.6215 -3.5499 80.2638 29.4775 0.0000 24.7862 2.3758 -10.4405 12.8955 32.8623 0.0000 -24.3270 -16.2072 19.4581 3.1143 12.6618 -0.0000 -0.0000 -20.9002 30.9706 7.5050 5.0095 0.0000 -0.0000 -82.7533 -4.7096 -30.1233 129.7677 -0.0000 0.0000 30.9103 -5.0824 0.4782 18.7366 -0.0000 -0.0000
 0.5076 32.8788 -2.3901 11.4551 -44.7572 -5.1551 -6.0201 7.2698 5.0843 -2.7103 -17.4618 14.2595 18.5624 14.8530 16.6756 -15.1763 5.9351 -82.1007 -136.6795 -0.0000 8.7885 -2.0131 30.0247 4.0182 33.1476 -0.0000 26.2537 -17.7850 -16.1130 -23.0655 20.6250 -3.4790 80.2178 29.4483 0.0000 24.6815 2.3657 -10.3356 12.9670 32.8623 0.0000 -24.3270 -16.2412 19.4590 3.1557 12.6930 -0.0000 -0.0000 -20.9359 31.0295 7.4995 5.0259 0.0000 -0.0000 -82.8038 -4.7332 -30.1280 129.6684 0.0000 -0.0000 30.7401 -5.2366 0.2765 18.3253 -0.0000 0.0000
 0.5103 32.8767 -2.3942 11.4321 -44.8373 -5.1295 -5.9722 7.2142 5.0256 -2.6777 -17.3078 14.3033 18.5492 14.8659 16.6796 -15.1690 5.7907 -82.0693 -136.7379 -0.0000 8.7590 -2.0896 30.0964 4.1615 33.1476 -0.0000 26.2537 -17.7824 -16.0986 -23.0635 20.6250 -3.4822 80.2043 29.4041 0.0000 24.7172 2.3602 -10.3132 12.9646 32.8623 0.0000 -24.3270 -16.2198 19.4761 3.1261 12.6895 0.0000 -0.0000 -20.9663 31.0759 7.5617 5.0721 0.0000 -0.0000 -82.8325 -4.6513 -30.1451 129.5814 0.0000 -0.0000 30.6341 -5.3522 0.2459 18.7402 0.0000 -0.0000
 0.5086 32.8760 -2.4012 11.3964 -44.9171 -5.1531 -5.9244 7.1535 5.0042 -2.6349 -17.1578 14.3724 18.5383 14.8756 16.6811 -15.1527 5.7084 -82.0495 -136.7812 -0.0000 8.7568 -2.0792 30.0733 4.1438 33.1476 -0.0000 26.2537 -17.7854 -16.1025 -23.0536 20.6061 -3.4663 80.1691 29.3460 0.0000 24.6775 2.3813 -10.3034 13.0891 32.8623 0.0000 -24.3270 -16.2185 19.5475 3.1504 12.6992 0.0000 0.0000 -21.0144 31.1301 7.5342 5.1247 -0.0000 -0.0000 -82.8519 -4.6296 -30.1533 129.5274 -0.0000 0.0000 30.5472 -5.4807 0.2138 18.4325 0.0000 0.0000
 0.5023 32.8786 -2.4149 11.3880 -45.0131 -5.2169 -5.9072 7.1032 5.0370 -2.5823 -17.0316 14.4521 18.5567 14.9041 16.6781 -15.1639 5.6407 -82.0495 -136.8291 -0.0000 8.7519 -2.0401 30.0799 4.0652 33.1476 -0.0000 26.2537 -17.7713 -16.1216 -23.0463 20.5663 -3.4247 80.1462 29.1936 0.0000 24.6502 2.3195 -10.1338 12.9644 32.8623 0.0000 -24.3270 -16.2715 19.5817 3.2705 12.7273 0.0000 -0.0000 -21.0467 31.1026 7.5995 5.0484 0.0000 -0.0000 -82.8992 -4.7016 -30.1249 129.4777 -0.0000 -0.0000 30.5192 -5.5934 0.1103 18.2525 -0.0000 -0.0000
 0.4990 32.8794 -2.4231 11.3689 -45.1211 -5.2541 -5.8868 7.0815 5.0449 -2.5306 -16.9344 14.5234 18.5825 14.9322 16.6745 -15.1722 5.5863 -82.0786 -136.8677 -0.0000 8.8193 -2.0281 30.0411 4.0461 33.1476 -0.0000 26.2537 -17.7885 -16.1594 -23.0666 20.5954 -3.3161 80.1306 29.1558 0.0000 24.5855 2.3497 -10.2276 13.0122 32.8623 0.0000 -24.3270 -16.2855 19.6476 3.3344 12.7273 0.0000 -0.0000 -21.0782 31.1094 7.6491 5.0679 -0.0000 0.0000 -82.9310 -4.7118 -30.0791 129.4497 -0.0000 0.0000 30.4563 -5.6045 -0.0476 18.3899 0.0000 -0.0000
 0.4964 32.8805 -2.4304 11.3638 -45.2082 -5.2701 -5.8816 7.0282 5.0331 -2.4567 -16.8421 14.6094 18.6138 14.9757 16.6691 -15.1558 5.5567 -82.1349 -136.9232 -0.0000 8.9306 -1.9963 29.9916 3.9888 33.1476 -0.0000 26.2537 -17.7840 -16.2161 -23.0588 20.5737 -3.3028 80.1011 29.0774 0.0000 24.6108 2.3412 -10.1906 13.0121 32.8623 0.0000 -24.3270 -16.2963 19.6662 3.3728 12.7136 0.0000 0.0000 -21.0980 31.1456 7.7245 5.1035 0.0000 -0.0000 -82.9535 -4.6694 -30.0657 129.4243 0.0000 -0.0000 30.5272 -5.4873 -0.0461 18.3386 -0.0000 -0.0000
 0.4926 32.8819 -2.4363 11.3533 -45.3052 -5.2824 -5.8744 6.9911 5.0131 -2.3954 -16.7686 14.6796 18.6602 15.0147 16.6433 -15.1528 5.6008 -82.1830 -136.9936 -0.0000 8.9391 -1.9471 29.9699 3.8932 33.1476 -0.0000 26.2537 -17.7898 -16.2187 -23.0347 20.6092 -3.3430 80.0781 29.0103 0.0000 24.6046 2.3503 -10.1963 13.0539 32.8623 0.0000 -24.3270 -16.2767 19.7106 3.3954 12.6551 0.0000 -0.0000 -21.1431 31.2313 7.7381 5.2081 0.0000 -0.0000 -82.9798 -4.6344 -30.0696 129.4127 -0.0000 -0.0000 30.6262 -5.3704 -0.0079 18.2861 -0.0000 0.0000
 0.4887 32.8845 -2.4426 11.3458 -45.3943 -5.2908 -5.8705 6.9639 4.9915 -2.3360 -16.7189 14.7377 18.6234 14.9614 16.6521 -15.0020 5.7379 -82.2188 -137.1045 -0.0000 8.9183 -1.8944 29.9593 3.7894 33.1476 -0.0000 26.2537 -17.7868 -16.2635 -23.0354 20.5995 -3.3575 80.0662 28.8692 0.0000 24.6179 2.3369 -10.0986 13.1019 32.8623 0.0000 -24.3270 -16.2553 19.6902 3.4264 12.6107 0.0000 0.0000 -21.1159 31.2481 7.7949 5.1676 0.0000 0.0000 -83.0137 -4.6046 -30.0433 129.4230 0.0000 -0.0000 30.7187 -5.3156 0.0162 18.3039 -0.0000 0.0000
 0.4831 32.8871 -2.4476 11.3202 -45.4937 -5.3038 -5.8548 6.9583 4.9552 -2.2826 -16.6888 14.8025 18.5859 14.9159 16.6622 -14.8581 5.8566 -82.2480 -137.2118 -0.0000 8.9673 -1.9258 29.9996 3.8473 33.1476 -0.0000 26.2537 -17.7819 -16.2441 -23.0261 20.7296 -3.3394 80.0937 28.8803 0.0000 24.6391 2.3510 -10.2158 13.0336 32.8623 0.0000 -24.3270 -16.2010 19.6906 3.4406 12.5351 0.0000 0.0000 -21.1485 31.3112 7.8240 5.2548 -0.0000 0.0000 -83.0311 -4.5577 -30.0238 129.4472 0.0000 -0.0000 30.8195 -5.2456 0.1004 18.3539 0.0000 0.0000
 0.4775 32.8900 -2.4505 11.2796 -45.5954 -5.3287 -5.8281 6.9412 4.9326 -2.2432 -16.6461 14.8445 18.5584 14.8923 16.6419 -14.7341 6.0056 -82.2683 -137.3054 -0.0000 9.0203 -1.8816 29.9846 3.7610 33.1476 -0.0000 26.2537 -17.7625 -16.3109 -23.0371 20.7274 -3.2373 80.0851 28.7691 0.0000 24.5712 2.3182 -10.1250 12.9678 32.8623 0.0000 -24.3270 -16.1174 19.7104 3.4469 12.4218 -0.0000 -0.0000 -21.1378 31.4071 7.7979 5.2635 0.0000 0.0000 -83.0412 -4.5233 -30.0277 129.4778 -0.0000 0.0000 30.8877 -5.1702 0.1239 18.5229 0.0000 -0.0000
 0.4719 32.8942 -2.4532 11.2644 -45.7124 -5.3243 -5.8366 6.9312 4.8879 -2.1805 -16.5939 14.9033 18.5611 14.9140 16.6022 -14.6648 6.2098 -82.2620 -137.3809 -0.0000 8.7634 -1.7569 29.9366 3.5173 33.1476 -0.0000 26.2537 -17.7364 -16.3354 -23.0171 20.7586 -3.1906 80.0725 28.6456 0.0000 24.5875 2.3267 -10.0983 13.0466 32.8623 0.0000 -24.3270 -16.0402 19.6884 3.4436 12.3051 0.0000 -0.0000 -21.1270 31.5244 7.7788 5.2884 0.0000 -0.0000 -83.0632 -4.4714 -30.0020 129.5208 0.0000 -0.0000 30.9034 -5.0838 0.0837 18.5296 -0.0000 0.0000
 0.4647 32.8989 -2.4566 11.2419 -45.8094 -5.3276 -5.8313 6.9028 4.8430 -2.1341 -16.5458 14.9560 18.5773 14.9634 16.5535 -14.6352 6.2616 -82.2438 -137.4171 -0.0000 9.0500 -1.8499 30.0123 3.6946 33.1476 -0.0000 26.2537 -17.7275 -16.3501 -23.0078 20.8262 -3.1526 80.0860 28.5640 0.0000 24.5867 2.3418 -10.1541 13.0595 32.8623 0.0000 -24.3270 -15.9453 19.6324 3.4466 12.1731 -0.0000 0.0000 -21.0834 31.5756 7.8008 5.3053 -0.0000 0.0000 -83.0858 -4.4369 -30.0032 129.5711 -0.0000 -0.0000 30.9274 -5.0591 0.0374 18.4059 -0.0000 0.0000
 0.4576 32.9032 -2.4584 11.2045 -45.9251 -5.3386 -5.8211 6.9329 4.7973 -2.0933 -16.5180 15.0189 18.6070 15.0091 16.5165 -14.6484 6.3614 -82.2184 -137.4298 -0.0000 9.0818 -1.8137 30.0264 3.6209 33.1476 -0.0000 26.2537 -17.7070 -16.3976 -23.0047 20.9028 -3.0800 80.0893 28.4891 0.0000 24.4790 2.3226 -10.0423 13.0939 32.8623 0.0000 -24.3270 -15.8411 19.6553 3.4399 12.0322 0.0000 0.0000 -21.0823 31.6962 7.7594 5.3604 -0.0000 -0.0000 -83.0910 -4.3793 -29.9698 129.6205 0.0000 -0.0000 30.9757 -5.0500 0.0368 18.3380 -0.0000 0.0000
 0.4496 32.9077 -2.4603 11.1676 -46.0058 -5.3501 -5.8028 6.9319 4.7445 -2.0684 -16.4900 15.0820 18.6027 15.0430 16.4991 -14.6219 6.4869 -82.1943 -137.4380 -0.0000 9.1076 -1.7818 30.0019 3.5600 33.1476 -0.0000 26.2537 -17.6947 -16.4145 -22.9815 21.0006 -3.0983 80.0996 28.4068 0.0000 24.4202 2.3830 -10.2400 13.1756 32.8623 0.0000 -24.3270 -15.7296 19.6216 3.4302 11.8894 -0.0000 0.0000 -21.0438 31.7974 7.7071 5.3740 0.0000 -0.0000 -83.1078 -4.3605 -30.0090 129.6729 0.0000 -0.0000 30.9887 -5.0680 0.0149 18.3527 -0.0000 0.0000
 0.4408 32.9125 -2.4622 11.1195 -46.0894 -5.3741 -5.7803 6.9613 4.6931 -2.0483 -16.4844 15.1597 18.5977 15.0737 16.4899 -14.6244 6.5546 -82.1606 -137.4142 -0.0000 9.1085 -1.8484 29.9976 3.6932 33.1476 -0.0000 26.2537 -17.6659 -16.4829 -22.9621 21.0627 -3.1025 80.1176 28.2988 0.0000 24.3941 2.3585 -10.1426 13.1640 32.8623 0.0000 -24.3270 -15.6170 19.5959 3.4252 11.7542 -0.0000 -0.0000 -21.0113 31.8989 7.6829 5.4094 -0.0000 0.0000 -83.1160 -4.3437 -30.0386 129.7155 0.0000 -0.0000 30.9983 -5.1014 0.0720 18.4637 0.0000 0.0000
 0.4309 32.9175 -2.4646 11.0678 -46.1524 -5.4144 -5.7539 6.9672 4.6595 -2.0424 -16.4500 15.2175 18.5750 15.0925 16.4954 -14.6027 6.6598 -82.1038 -137.3808 -0.0000 9.1127 -1.8566 29.9963 3.7098 33.1476 -0.0000 26.2537 -17.6297 -16.5462 -22.9451 21.1360 -3.0225 80.1165 28.1903 0.0000 24.2706 2.3508 -10.1568 13.1048 32.8623 0.0000 -24.3270 -15.5107 19.5360 3.4332 11.6305 -0.0000 0.0000 -20.9856 31.9971 7.6563 5.4418 -0.0000 0.0000 -83.1163 -4.3143 -30.0792 129.7304 0.0000 -0.0000 31.1184 -5.0654 0.2207 18.3620 0.0000 0.0000
